<svg width="32" height="32" viewBox="0 0 32 32" fill="none" xmlns="http://www.w3.org/2000/svg">
  <defs>
    <linearGradient id="gold-grad" x1="16" y1="12" x2="16" y2="29" gradientUnits="userSpaceOnUse">
      <stop offset="0" stop-color="#FDE68A"/>
      <stop offset="1" stop-color="#D97706"/>
    </linearGradient>
    <linearGradient id="leaf-grad" x1="16" y1="4" x2="16" y2="13" gradientUnits="userSpaceOnUse">
      <stop offset="0" stop-color="#4ADE80"/>
      <stop offset="1" stop-color="#166534"/>
    </linearGradient>
  </defs>
  <rect width="32" height="32" rx="8" fill="#111827"/>
  <path d="M16 4C16 4 13 8 13 10C13 12 14.5 13 16 13C17.5 13 19 12 19 10C19 8 16 4 16 4Z" fill="url(#leaf-grad)"/>
  <path d="M12 7C12 7 11 9 11 11C11 13 13 14 14 13" stroke="url(#leaf-grad)" stroke-width="1.5" stroke-linecap="round"/>
  <path d="M20 7C20 7 21 9 21 11C21 13 19 14 18 13" stroke="url(#leaf-grad)" stroke-width="1.5" stroke-linecap="round"/>
  <path d="M16 12C12 12 9 15 9 20C9 25 12 29 16 29C20 29 23 25 23 20C23 15 20 12 16 12Z" fill="url(#gold-grad)"/>
  <path d="M12 18L14 16M16 18L18 16M10 21L12 19M14 21L16 19M18 21L20 19M22 21L20 23M12 24L14 22M16 24L18 22M14 27L16 25" stroke="#92400E" stroke-width="0.8" stroke-linecap="round"/>
</svg>
